<svg version="1.1" viewBox="0.0 0.0 960.0 720.0" fill="none" stroke="none" stroke-linecap="square" stroke-miterlimit="10" xmlns:xlink="http://www.w3.org/1999/xlink" xmlns="http://www.w3.org/2000/svg"><clipPath id="p.0"><path d="m0 0l960.0 0l0 720.0l-960.0 0l0 -720.0z" clip-rule="nonzero"/></clipPath><g clip-path="url(#p.0)"><path fill="#000000" fill-opacity="0.0" d="m0 0l960.0 0l0 720.0l-960.0 0z" fill-rule="evenodd"/><path fill="#666666" d="m363.0809 321.96317l18.606293 -37.212585l52.519684 0l18.606293 37.212585l-18.606293 37.212585l-52.519684 0z" fill-rule="evenodd"/><path stroke="#666666" stroke-width="3.0" stroke-linejoin="round" stroke-linecap="butt" d="m363.0809 321.96317l18.606293 -37.212585l52.519684 0l18.606293 37.212585l-18.606293 37.212585l-52.519684 0z" fill-rule="evenodd"/><path fill="#000000" d="m435.13452 360.00186l18.606293 -37.212585l52.519684 0l18.606323 37.212585l-18.606323 37.212585l-52.519684 0z" fill-rule="evenodd"/><path stroke="#000000" stroke-width="2.0" stroke-linejoin="round" stroke-linecap="butt" d="m435.13452 360.00186l18.606293 -37.212585l52.519684 0l18.606323 37.212585l-18.606323 37.212585l-52.519684 0z" fill-rule="evenodd"/><path fill="#666666" d="m435.13452 283.92447l18.606293 -37.21257l52.519684 0l18.606323 37.21257l-18.606323 37.212585l-52.519684 0z" fill-rule="evenodd"/><path stroke="#666666" stroke-width="3.0" stroke-linejoin="round" stroke-linecap="butt" d="m435.13452 283.92447l18.606293 -37.21257l52.519684 0l18.606323 37.21257l-18.606323 37.212585l-52.519684 0z" fill-rule="evenodd"/><path fill="#666666" d="m507.18814 321.96317l18.606293 -37.212585l52.519714 0l18.606262 37.212585l-18.606262 37.212585l-52.519714 0z" fill-rule="evenodd"/><path stroke="#666666" stroke-width="3.0" stroke-linejoin="round" stroke-linecap="butt" d="m507.18814 321.96317l18.606293 -37.212585l52.519714 0l18.606262 37.212585l-18.606262 37.212585l-52.519714 0z" fill-rule="evenodd"/><path fill="#666666" d="m363.07986 398.0307l18.606293 -37.212585l52.519684 0l18.606323 37.212585l-18.606323 37.212555l-52.519684 0z" fill-rule="evenodd"/><path stroke="#666666" stroke-width="3.0" stroke-linejoin="round" stroke-linecap="butt" d="m363.07986 398.0307l18.606293 -37.212585l52.519684 0l18.606323 37.212585l-18.606323 37.212555l-52.519684 0z" fill-rule="evenodd"/><path fill="#666666" d="m435.13348 436.06937l18.606323 -37.212555l52.519684 0l18.606293 37.212555l-18.606293 37.212585l-52.519684 0z" fill-rule="evenodd"/><path stroke="#666666" stroke-width="3.0" stroke-linejoin="round" stroke-linecap="butt" d="m435.13348 436.06937l18.606323 -37.212555l52.519684 0l18.606293 37.212555l-18.606293 37.212585l-52.519684 0z" fill-rule="evenodd"/><path fill="#666666" d="m507.18814 398.0356l18.606293 -37.212585l52.519714 0l18.606262 37.212585l-18.606262 37.212585l-52.519714 0z" fill-rule="evenodd"/><path stroke="#666666" stroke-width="3.0" stroke-linejoin="round" stroke-linecap="butt" d="m507.18814 398.0356l18.606293 -37.212585l52.519714 0l18.606262 37.212585l-18.606262 37.212585l-52.519714 0z" fill-rule="evenodd"/><path fill="#000000" d="m435.13348 512.1428l18.606323 -37.212585l52.519684 0l18.606293 37.212585l-18.606293 37.212585l-52.519684 0z" fill-rule="evenodd"/><path stroke="#000000" stroke-width="2.0" stroke-linejoin="round" stroke-linecap="butt" d="m435.13348 512.1428l18.606323 -37.212585l52.519684 0l18.606293 37.212585l-18.606293 37.212585l-52.519684 0z" fill-rule="evenodd"/><path fill="#000000" d="m291.02625 436.07922l18.606293 -37.212555l52.519684 0l18.606323 37.212555l-18.606323 37.212585l-52.519684 0z" fill-rule="evenodd"/><path stroke="#000000" stroke-width="2.0" stroke-linejoin="round" stroke-linecap="butt" d="m291.02625 436.07922l18.606293 -37.212555l52.519684 0l18.606323 37.212555l-18.606323 37.212585l-52.519684 0z" fill-rule="evenodd"/><path fill="#000000" d="m291.02728 283.9294l18.606293 -37.212585l52.519684 0l18.606293 37.212585l-18.606293 37.212585l-52.519684 0z" fill-rule="evenodd"/><path stroke="#000000" stroke-width="2.0" stroke-linejoin="round" stroke-linecap="butt" d="m291.02728 283.9294l18.606293 -37.212585l52.519684 0l18.606293 37.212585l-18.606293 37.212585l-52.519684 0z" fill-rule="evenodd"/><path fill="#000000" d="m435.13452 207.85695l18.606293 -37.21257l52.519684 0l18.606323 37.21257l-18.606323 37.212585l-52.519684 0z" fill-rule="evenodd"/><path stroke="#000000" stroke-width="2.0" stroke-linejoin="round" stroke-linecap="butt" d="m435.13452 207.85695l18.606293 -37.21257l52.519684 0l18.606323 37.21257l-18.606323 37.212585l-52.519684 0z" fill-rule="evenodd"/><path fill="#000000" d="m579.24176 436.07135l18.606323 -37.212585l52.519653 0l18.606323 37.212585l-18.606323 37.212585l-52.519653 0z" fill-rule="evenodd"/><path stroke="#000000" stroke-width="2.0" stroke-linejoin="round" stroke-linecap="butt" d="m579.24176 436.07135l18.606323 -37.212585l52.519653 0l18.606323 37.212585l-18.606323 37.212585l-52.519653 0z" fill-rule="evenodd"/><path fill="#000000" d="m579.24176 283.93137l18.606323 -37.21257l52.519653 0l18.606323 37.21257l-18.606323 37.212585l-52.519653 0z" fill-rule="evenodd"/><path stroke="#000000" stroke-width="2.0" stroke-linejoin="round" stroke-linecap="butt" d="m579.24176 283.93137l18.606323 -37.21257l52.519653 0l18.606323 37.21257l-18.606323 37.212585l-52.519653 0z" fill-rule="evenodd"/></g></svg>